<svg id="ab" xmlns="http://www.w3.org/2000/svg" viewBox="0 0 53.65 53.65">
  <g id="A">
    <circle cx="40.32" cy="13.32" r="13.32" fill="#d8d8d8"/>
    <path d="M42,9a1.05,1.05,0,0,1,.76.31,1,1,0,0,1,.32.77v7.08H41.46V13.69H39.81v3.46H38.2V10.07a1,1,0,0,1,.32-.77A1.05,1.05,0,0,1,39.28,9Zm-.53,3.19V10.86a.32.32,0,0,0-.37-.36h-.93a.32.32,0,0,0-.37.36v1.32Z" fill="#474749"/>
  </g>
  <g id="B">
    <circle cx="13.32" cy="40.32" r="13.32" fill="#d8d8d8"/>
    <path d="M11.13,36.1h3.8A1.09,1.09,0,0,1,16,37.18v6a1.09,1.09,0,0,1-1.09,1.08H11.13ZM14.41,38a.32.32,0,0,0-.37-.36h-.93a.32.32,0,0,0-.37.36v1.45H14q.38,0,.38-.36Zm0,3.32a.32.32,0,0,0-.37-.36h-1.3v1.45a.32.32,0,0,0,.37.36H14a.32.32,0,0,0,.37-.36Z" fill="#474749"/>
  </g>
</svg>
